<?xml version="1.0" encoding="UTF-8" standalone="no"?>
<svg width="33px" height="32px" viewBox="0 0 33 32" version="1.1" xmlns="http://www.w3.org/2000/svg" xmlns:xlink="http://www.w3.org/1999/xlink">
    <!-- Generator: Sketch 45 (43475) - http://www.bohemiancoding.com/sketch -->
    <title>link_file</title>
    <desc>Created with Sketch.</desc>
    <defs></defs>
    <g id="Page-1" stroke="none" stroke-width="1" fill="none" fill-rule="evenodd">
        <path d="M4.43165269,18.6182042 C1.84933008,21.1119241 1.77750344,25.2268697 4.27122339,27.8091923 C6.76494335,30.3915149 10.8798889,30.4633416 13.4622115,27.9696216 L17.0589105,24.4963297 L18.1008981,25.5753394 L14.5041991,29.0486313 C11.3259558,32.1178251 6.26140749,32.0294231 3.19221369,28.8511799 C0.123019899,25.6729366 0.211421919,20.6083883 3.38966513,17.5391945 L6.98636413,14.0659026 L8.02835169,15.1449123 L4.43165269,18.6182042 Z M28.5683473,13.3817958 C31.1506699,10.8880759 31.2224966,6.77313031 28.7287766,4.1908077 C26.2350566,1.60848509 22.1201111,1.53665845 19.5377885,4.03037841 L15.9410895,7.50367026 L14.8991019,6.42466056 L18.4958009,2.95136871 C21.6740442,-0.117825087 26.7385925,-0.0294230669 29.8077863,3.14882015 C32.8769801,6.32706336 32.7885781,11.3916117 29.6103349,14.4608055 L26.0136359,17.9340974 L24.9716483,16.8550877 L28.5683473,13.3817958 Z M10,21.1145339 L21.5094368,10 L22.5514244,11.0790097 L11.0419876,22.1935436 L10,21.1145339 Z" id="link_file" fill="#979797" fill-rule="nonzero"></path>
    </g>
</svg>